{
  "asset": {
    "version": "2.0",
    "generator": "THREE.GLTFExporter"
  },
  "scenes": [
    {
      "nodes": [2],
      "name": "Scene"
    }
  ],
  "scene": 0,
  "nodes": [
    {
      "matrix": [
        0.1,
        0,
        0,
        0,
        0,
        -2.2204460492503132e-17,
        -0.10000000000000003,
        0,
        0,
        0.10000000000000003,
        -2.2204460492503132e-17,
        0,
        0,
        0,
        0,
        1
      ],
      "name": "Mesh_Mesh_head_geo001_lambert2SG001",
      "extras": {
        "name": "Mesh_Mesh_head_geo.001_lambert2SG.001"
      },
      "mesh": 0
    },
    {
      "name": "Public_Restroomglb",
      "extras": {
        "name": "Public Restroom.glb"
      },
      "children": [0]
    },
    {
      "name": "public-restroom-neude.gltf",
      "children": [1]
    }
  ],
  "bufferViews": [
    {
      "buffer": 0,
      "byteOffset": 0,
      "byteLength": 40248,
      "target": 34962,
      "byteStride": 12
    },
    {
      "buffer": 0,
      "byteOffset": 40248,
      "byteLength": 40248,
      "target": 34962,
      "byteStride": 12
    },
    {
      "buffer": 0,
      "byteOffset": 80496,
      "byteLength": 40248,
      "target": 34962,
      "byteStride": 12
    },
    {
      "buffer": 0,
      "byteOffset": 120744,
      "byteLength": 13416,
      "target": 34963
    }
  ],
  "buffers": [
    {
      "byteLength": 134160,
      "uri": "data:application/octet-stream;base64,"
    }
  ],
  "accessors": [
    {
      "bufferView": 0,
      "componentType": 5126,
      "count": 3354,
      "max": [34.39799880981445, 28.39699935913086, 58.5],
      "min": [-34.402000427246094, -40.40299987792969, 0],
      "type": "VEC3"
    },
    {
      "bufferView": 1,
      "componentType": 5126,
      "count": 3354,
      "max": [0.16862745583057404, 0.18039216101169586, 0.1921568661928177],
      "min": [0.16862745583057404, 0.18039216101169586, 0.1921568661928177],
      "type": "VEC3"
    },
    {
      "bufferView": 2,
      "componentType": 5126,
      "count": 3354,
      "max": [1, 1, 1],
      "min": [-1, -1, -1],
      "type": "VEC3"
    },
    {
      "bufferView": 3,
      "componentType": 5125,
      "count": 3354,
      "max": [3353],
      "min": [0],
      "type": "SCALAR"
    }
  ],
  "materials": [
    {
      "pbrMetallicRoughness": {
        "metallicFactor": 0.5,
        "roughnessFactor": 0.5
      }
    }
  ],
  "meshes": [
    {
      "primitives": [
        {
          "mode": 4,
          "attributes": {
            "POSITION": 0,
            "COLOR_0": 1,
            "NORMAL": 2
          },
          "indices": 3,
          "material": 0
        }
      ]
    }
  ]
}
