{
  "asset": {
    "version": "2.0",
    "generator": "THREE.GLTFExporter"
  },
  "scenes": [
    {
      "nodes": [2],
      "name": "Scene"
    }
  ],
  "scene": 0,
  "nodes": [
    {
      "matrix": [
        0.050056463829792036,
        0,
        0.04152359576646758,
        0,
        0,
        0.06503736227750778,
        0,
        0,
        -0.04152359576646758,
        0,
        0.050056463829792036,
        0,
        -3.5102901458740234,
        4.482078552246094,
        0.42558252811431885,
        1
      ],
      "name": "Thinker-On-A-Rock-Nga-Sculpture-Garden-1",
      "extras": {
        "name": "Thinker-On-A-Rock-Nga-Sculpture-Garden-1"
      },
      "mesh": 0
    },
    {
      "matrix": [
        1,
        0,
        0,
        0,
        0,
        1,
        0,
        0,
        0,
        0,
        1,
        0,
        0,
        2.2896628379821777,
        0,
        1
      ],
      "name": "Cylinder",
      "extras": {
        "name": "Cylinder"
      },
      "mesh": 1
    },
    {
      "name": "thinker-on-a-rock-neude.gltf",
      "children": [0, 1]
    }
  ],
  "bufferViews": [
    {
      "buffer": 0,
      "byteOffset": 0,
      "byteLength": 137964,
      "target": 34962,
      "byteStride": 12
    },
    {
      "buffer": 0,
      "byteOffset": 137964,
      "byteLength": 137964,
      "target": 34962,
      "byteStride": 12
    },
    {
      "buffer": 0,
      "byteOffset": 275928,
      "byteLength": 91976,
      "target": 34962,
      "byteStride": 8
    },
    {
      "buffer": 0,
      "byteOffset": 367904,
      "byteLength": 132996,
      "target": 34963
    },
    {
      "buffer": 0,
      "byteOffset": 500900,
      "byteLength": 1560,
      "target": 34962,
      "byteStride": 12
    },
    {
      "buffer": 0,
      "byteOffset": 502460,
      "byteLength": 1560,
      "target": 34962,
      "byteStride": 12
    },
    {
      "buffer": 0,
      "byteOffset": 504020,
      "byteLength": 1040,
      "target": 34962,
      "byteStride": 8
    },
    {
      "buffer": 0,
      "byteOffset": 505060,
      "byteLength": 744,
      "target": 34963
    }
  ],
  "buffers": [
    {
      "byteLength": 505804,
      "uri": "data:application/octet-stream;base64,"
    }
  ],
  "accessors": [
    {
      "bufferView": 0,
      "componentType": 5126,
      "count": 11497,
      "max": [89.93195343017578, 124.94065856933594, -0.01176364440470934],
      "min": [-0.0355803444981575, -0.001080454676412046, -86.93199157714844],
      "type": "VEC3"
    },
    {
      "bufferView": 1,
      "componentType": 5126,
      "count": 11497,
      "max": [0.999969482421875, 0.99920654296875, 0.99993896484375],
      "min": [-0.999847412109375, -0.9962157011032104, -0.999542236328125],
      "type": "VEC3"
    },
    {
      "bufferView": 2,
      "componentType": 5126,
      "count": 11497,
      "max": [1, 1],
      "min": [0, 0],
      "type": "VEC2"
    },
    {
      "bufferView": 3,
      "componentType": 5123,
      "count": 66498,
      "max": [11496],
      "min": [0],
      "type": "SCALAR"
    },
    {
      "bufferView": 4,
      "componentType": 5126,
      "count": 130,
      "max": [2, 2.25, 2],
      "min": [-2, -2.25, -2],
      "type": "VEC3"
    },
    {
      "bufferView": 5,
      "componentType": 5126,
      "count": 130,
      "max": [0.7278664708137512, 0.6856898665428162, 0.7278664708137512],
      "min": [-0.7278664708137512, -0.6856898665428162, -0.7278664708137512],
      "type": "VEC3"
    },
    {
      "bufferView": 6,
      "componentType": 5126,
      "count": 130,
      "max": [1, 0.9900000095367432],
      "min": [0, 0],
      "type": "VEC2"
    },
    {
      "bufferView": 7,
      "componentType": 5123,
      "count": 372,
      "max": [129],
      "min": [0],
      "type": "SCALAR"
    }
  ],
  "materials": [
    {
      "pbrMetallicRoughness": {
        "baseColorFactor": [
          0.12156862745098039,
          0.12941176470588237,
          0.12549019607843137,
          1
        ],
        "metallicFactor": 0.34,
        "roughnessFactor": 0.82
      },
      "doubleSided": true,
      "name": "Material.001"
    }
  ],
  "meshes": [
    {
      "primitives": [
        {
          "mode": 4,
          "attributes": {
            "POSITION": 0,
            "NORMAL": 1,
            "TEXCOORD_0": 2
          },
          "indices": 3,
          "material": 0
        }
      ]
    },
    {
      "primitives": [
        {
          "mode": 4,
          "attributes": {
            "POSITION": 4,
            "NORMAL": 5,
            "TEXCOORD_0": 6
          },
          "indices": 7,
          "material": 0
        }
      ]
    }
  ]
}
