<svg version="1" xmlns="http://www.w3.org/2000/svg" width="946.667" height="946.667" viewBox="0 0 710.000000 710.000000"><path d="M316.3 2.6c-118.9 12.9-224 86-277.5 192.9-19 37.9-29.4 72-35.4 116-2.6 18.7-2.6 66.5-.1 86 8.6 66.3 32.3 123.3 73.3 176.5 11.5 14.9 44.5 47.9 59.4 59.4 53.1 40.9 109.7 64.5 176 73.3 10.3 1.3 20.4 1.8 42.5 1.8 29.3 0 38.5-.7 61.5-4.5 125.5-21.2 232.4-111.9 274.1-232.9 26.7-77.4 25.7-163.8-2.8-240.5-5.8-15.8-18.5-41.9-27.9-57.6-48.1-80.5-127-139.2-217.9-162-14.5-3.6-38-7.6-53-9-15.1-1.4-57.4-1.1-72.2.6zm71 32.4c32.6 6.9 59.3 21.4 82.8 44.9 31.3 31.4 47.9 71 47.9 114.4 0 75.1-50 139.7-122.5 158.2l-9 2.3 4.5 1.1c30.4 7.5 55.7 21.2 76.7 41.5 25 24 40.6 52.6 47.5 86.9 3.1 15.1 3.3 44.1.4 59.2C498 638.1 404.3 697.2 312.1 672c-28.4-7.8-52.7-22.5-74.3-44.8-48-49.8-59.1-123.8-27.8-186.3 20-39.8 59.3-71.8 102-82.9 4.7-1.2 9.2-2.4 10-2.7.8-.3-3.2-1.8-9-3.3-38.3-10.3-70.8-33.6-93.1-66.8C178.8 223.9 184.2 143 233.2 87c23.5-26.8 58.6-46.6 92.8-52.4 5.2-.8 10.6-1.8 12-2 1.4-.3 10.8-.3 21-.1 13.8.3 21 .9 28.3 2.5z"/><path d="M340 39.7c-66.8 7.1-121.1 55.5-136.6 121.8-2.7 11.2-2.8 13.4-2.8 33.5 0 23.3 1.2 32.2 7 49.6 13.2 39.7 43.4 73.9 80.8 91.4 8 3.8 21.8 9 23.8 9 .4 0 .8-13.3.8-29.5V286l2.4-1.5c2-1.4 7.4-1.5 41.1-1.3 36.9.3 38.7.4 40.1 2.2 1.1 1.6 1.4 7.5 1.4 30.9v28.9l3.1-.6c10.2-2 34.4-14 47-23.2 25.2-18.6 43.9-43.5 54.7-72.9 11.6-31.6 12.1-70.3 1.2-102.5-21.6-64.6-82.5-107.9-150.2-106.8-5.7 0-11.9.3-13.8.5zm19.8 61c1 1.6 6 10.1 11.1 19 9.8 17.2 10.4 19.5 5.4 21.4-1.3.5-11.1.9-21.6.9-15.8 0-19.7-.3-21.5-1.6-2.8-2-2.8-4.7.2-9.8C353 96.4 352 98 355 98c2 0 3.4.8 4.8 2.7zm27 52.5c.9.9 1.2 15.1 1.2 58 0 55.1-.1 56.8-1.9 57.8-1.2.6-13 1-31.2 1-25.8 0-29.5-.2-31.1-1.7-1.7-1.5-1.8-4.6-1.8-57 0-36.3.4-56.1 1-57.4 1-1.8 2.4-1.9 31.8-1.9 22.6 0 31.1.3 32 1.2z"/><path d="M332.7 160.7c-2.2 4.7-2.2 5.5-2.5 54l-.3 49.3H342v-49.3c0-49.1 0-49.3-2.2-53.7-1.3-2.4-2.9-4.6-3.6-4.8-.7-.2-2.2 1.7-3.5 4.5zM351.7 160.7c-2.2 4.7-2.2 5.5-2.5 54l-.3 49.3h12.2l-.3-50.3c-.3-48.2-.4-50.3-2.3-53.6-2.9-5-4.2-4.9-6.8.6zM370.8 160.2l-2.3 4.3-.3 49.7-.3 49.8h12.2l-.3-50.3c-.3-48.2-.4-50.3-2.3-53.6-1.1-1.9-2.6-3.6-3.2-3.8-.7-.3-2.2 1.5-3.5 3.9zM326.2 294.7c-2.7 5.7-2.7 6.1-3 29.4l-.3 23.6 5.3.7c2.9.4 6.3 1 7.6 1.3l2.3.5-.3-25.8c-.3-25.5-.3-26-2.8-30.4-3.7-6.5-5.5-6.4-8.8.7zM352.4 291.5c-4 6.1-4.3 9.1-4.3 39.5-.1 25.7 6 169.4 7.1 170.5.2.2 2.1-35.7 4.2-79.8 2.6-54.8 3.7-86.7 3.5-100.7-.4-19.8-.5-20.7-3.1-26.3-3-6.3-4.8-7.1-7.4-3.2zM375.2 294.7c-2.7 5.8-2.7 6-3 30.7l-.3 24.8 5.8-.6c10.4-1.3 9.5 1.6 9.1-26.4-.3-24.2-.3-24.8-2.8-29.2-3.7-6.5-5.5-6.4-8.8.7zM330 361.5c-49.2 8.3-91.1 39-113.9 83.5-10.8 21.2-15.8 40-16.8 64.1-1.2 28.9 4.2 53.7 17.4 79.2 2.5 4.8 5 8.7 5.7 8.7.6 0 3.1-3.1 5.6-6.7 15.1-22.4 47.5-47.6 79.5-61.7 8.8-3.9 8.8-3.9-4 4-12.6 7.8-22.3 15.3-29.8 23.4-7.1 7.5-23.3 28.7-34.2 44.8-6.8 10.1-6.8 10.2-4.9 12.3 4.1 4.5 5.1 4.4 8-1.3 4.3-8.5 16.6-27.8 24.3-38.2 13-17.6 27.2-30.8 49.3-46 9.4-6.5 17.6-10 31.6-13.6 2.3-.6 4.2-1.5 4.2-2.1 0-.5-2.7-33.8-6-73.9-3.3-40.1-6-74.1-6-75.5 0-2.8.3-2.8-10-1zM369.6 364.2c-.3 2.4-3.1 36.8-6.2 76.6l-5.6 72.3 3.9 4.2c2.1 2.4 7.2 8.8 11.4 14.3 24.5 32.2 44.2 50.5 65.2 60.9 13 6.4 19.9 8 33.7 7.9 6.3-.1 12.7-.6 14.2-1.2 5.5-2.3 18.6-33.2 22.3-52.4 6.6-34.6 1.9-70.1-13.1-100.1-24-47.7-67.6-78.7-121.1-86.1l-4.2-.6-.5 4.2z"/><path d="M344 518.8c-20.5 13.7-43.5 34.3-55.5 49.7-12.1 15.5-38.5 57.7-38.5 61.6 0 1.6 5.9 6.9 7.7 6.9.5 0 4.1-6.6 8.2-14.7 23.4-47.1 46.6-75.9 82.2-102.3 7.1-5.3 8.5-7 5.5-7-.6 0-4.9 2.6-9.6 5.8zM351 536.5l-2.4 2.5 2.5 2.8c1.4 1.5 6.3 7.6 10.9 13.7 31.3 41.3 58.9 63.1 86.8 68.6l6.4 1.2 3.5-3.5 3.5-3.5-5.4-.7c-21.5-2.8-39.5-13.1-61.4-35-9.8-9.8-19.5-21.4-35.6-42.4-2.7-3.4-5.2-6.2-5.6-6.2-.5 0-1.9 1.1-3.2 2.5zM331.2 553.3c-1.2 1.3-2.2 2.7-2.2 3.1 0 1.1 17.8 24.2 26.5 34.6 10.2 12 27.7 28.5 36.8 34.8 9.9 6.8 24.4 13.7 33.1 15.7l6.8 1.6 5.1-3.3 5.2-3.3-7.8-1.2c-30.6-4.6-54-23.5-94.1-75.6-3.7-4.8-6.8-8.7-7-8.7-.1 0-1.2 1-2.4 2.3zM311.2 575.8l-2 2.8 9.5 12.4c13.8 18 21.7 27.3 32.4 37.8 12.3 12.1 23.1 20.1 35.6 26.3l10.1 5.1 6.3-2.3 6.2-2.3-8.2-2.7c-25.1-8.5-47.2-28.1-79.1-70.2-4.1-5.3-7.7-9.7-8.1-9.7-.4 0-1.7 1.3-2.7 2.8zM294.5 600l-1.6 3.1 9.7 12.7c17.8 23.4 32.1 39.2 43.6 48.6 4.6 3.7 5 3.8 10.3 3.1l5.5-.6-4.8-3.6c-14.7-11.2-27.7-25.2-47.2-50.6-6.7-8.6-12.5-15.7-13-15.7s-1.7 1.4-2.5 3zM278.5 628c-1.5 2.9-1.5 2.9 5.7 12.2 4 5.2 9.1 11.7 11.3 14.6 3.2 4.3 4.9 5.5 8.9 6.7 7.8 2.3 8.1 1.9 3.3-3.8-2.4-2.8-8.1-10.2-12.7-16.2-9.1-12-13-16.5-14.2-16.5-.4 0-1.4 1.3-2.3 3z"/></svg>