<?xml version="1.0" encoding="utf-8"?>
<!-- Generator: Adobe Illustrator 23.0.3, SVG Export Plug-In . SVG Version: 6.00 Build 0)  -->
<svg version="1.1" id="Layer_1" xmlns="http://www.w3.org/2000/svg" xmlns:xlink="http://www.w3.org/1999/xlink" x="0px" y="0px"
	 viewBox="0 0 60 60" style="enable-background:new 0 0 60 60;" xml:space="preserve">
<style type="text/css">
	.st0{fill-rule:evenodd;clip-rule:evenodd;fill:#E84B37;}
	.st1{fill-rule:evenodd;clip-rule:evenodd;fill:#FFFFFF;}
</style>
<title>logo-web</title>
<rect class="st0" width="60" height="60"/>
<g>
	<path class="st1" d="M27.6,10.7l-3.2,14.3h-3.6l1.4-6.3h-5.3l-1.4,6.3h-3.5l3.3-14.3h3.5l-1.2,5.2h5.3l1.2-5.2H27.6z M36.2,10.6
		h3.6l-1.9,8.7c-0.1,0.4-0.1,0.7-0.1,1.1c0,1.5,1.5,1.8,2.1,1.8c1.8,0,2.3-1.4,2.7-2.7l2.1-8.8h3.6L46.1,20
		c-0.2,0.9-0.5,2.2-1.4,3.3c-0.9,1-2.6,2-5,2c-2.4,0-5.6-1-5.6-4.4c0-0.7,0.2-1.5,0.3-2.2C34.4,18.6,36.2,10.6,36.2,10.6z M42,37.7
		l-3.3,5.9h3.6L42,37.7L42,37.7z M44.7,34.7l1.5,14.3h-3.5l-0.2-2.8h-5.3l-1.6,2.8H32l8.7-14.3H44.7L44.7,34.7z M13,48.7l3.2-14.2
		h-1.5l-3.2,14.2H13z M19.5,48.7l3.2-14.2h-1.5L18,48.7H19.5z M25.9,48.7l3.2-14.2h-1.5l-3.2,14.2H25.9z"/>
</g>
</svg>
