<?xml version="1.0" encoding="utf-8"?>
<!-- Generator: Adobe Illustrator 23.0.3, SVG Export Plug-In . SVG Version: 6.00 Build 0)  -->
<svg version="1.1" id="Layer_1" xmlns="http://www.w3.org/2000/svg" xmlns:xlink="http://www.w3.org/1999/xlink" x="0px" y="0px"
	 viewBox="0 0 102.8 71.7" style="enable-background:new 0 0 102.8 71.7;" xml:space="preserve">
<style type="text/css">
	.st0{filter:url(#Adobe_OpacityMaskFilter);}
	.st1{fill-rule:evenodd;clip-rule:evenodd;fill:#FFFFFF;}
	.st2{mask:url(#b_1_);fill-rule:evenodd;clip-rule:evenodd;fill:#002048;}
</style>
<g>
	<g transform="translate(13 28)">
		<defs>
			<filter id="Adobe_OpacityMaskFilter" filterUnits="userSpaceOnUse" x="-13" y="-28" width="102.8" height="71.7">
				<feColorMatrix  type="matrix" values="1 0 0 0 0  0 1 0 0 0  0 0 1 0 0  0 0 0 1 0"/>
			</filter>
		</defs>
		<mask maskUnits="userSpaceOnUse" x="-13" y="-28" width="102.8" height="71.7" id="b_1_">
			<g class="st0">
				<polygon id="a_1_" class="st1" points="-13,43.7 89.8,43.7 89.8,-28 -13,-28 				"/>
			</g>
		</mask>
		<path class="st2" d="M39.8-0.3c-0.4,0.4-0.5,0.8-0.5,1.3v3.9c0,0.5,0.2,0.9,0.5,1.3c0.4,0.4,0.8,0.5,1.3,0.5h1.4
			c0.5,0,1-0.2,1.3-0.5c0.4-0.4,0.5-0.8,0.5-1.3v-5.5L41-0.8C40.5-0.8,40.1-0.7,39.8-0.3z M55.4,1c0-0.5-0.2-0.9-0.5-1.3
			c-0.4-0.4-0.8-0.5-1.3-0.5h-1.4c-0.5,0-1,0.2-1.3,0.5c-0.4,0.4-0.5,0.8-0.5,1.3v1.2h5.1V1z M33.5,39.7c0.4,1,3.1-0.1,2.9-1.7
			C35.8,36.9,33.2,37.9,33.5,39.7z M81.1,9.2c-1,0.6-2.4,1.6-3.7,1.5c0,0.5-0.2,1.1-0.1,1.6C78.7,12.2,80.4,11.3,81.1,9.2z
			 M77.9,5.5c0-1.3-0.5-2.3-1.4-3c-0.7-0.5-1.5-0.7-2.7-0.8c-0.9-0.1-1.2-0.3-1.3-0.4C72.1,1,72,0.5,72,0.1c0-0.5,0.1-0.9,1.2-0.9
			l4.2,0.3l-0.6-2.3c-3.4-0.2-3.5-0.2-3.5-0.2c-1.1,0-2,0.3-2.6,1c-0.6,0.6-0.9,1.3-0.9,2.2c0,2.1,1,3,1.9,3.4l2.9,0.6
			c0.7,0.2,1,0.6,1,1.4c0,0.4-0.1,0.7-0.4,0.9c-0.2,0.2-0.5,0.3-0.9,0.3l-4.1-0.2l-0.7,2.2l0.6,0C74.1,9,74.2,9,74.3,9
			c1,0,1.8-0.3,2.5-1C77.5,7.4,77.9,6.5,77.9,5.5z M75.7,20c-0.3,3-1.1,6.6-1.2,8.7c0,0.2,0.4-0.1,0.7-0.1c0.3-1.8,1.2-6.8,1.1-8.6
			C76.3,19.7,75.8,20.2,75.7,20z M76.6,27.8c1.5-0.6,2.8-2,3.2-3.7c-1,0-2.6-0.1-2.8,0.3C76.8,25.5,76.6,26.8,76.6,27.8z M77.2,22.5
			c1.2-0.1,3.1,0.1,3-0.2c-0.2-0.9-0.5-1.2-1-2.3c-0.3-0.7,0.2-1.7-1.2-1C77.5,19.7,77.3,21.1,77.2,22.5z M70.5-11.3
			c0.6,0.4,2-0.6,2.2-1.1c0-1.5-1-2.8-2.6-3.1C68.7-13.7,69.4-12.3,70.5-11.3z M69.7-17.8c-0.9-0.4-1-1.1-1.8-1.9
			c0,0.4-0.6,1.1-0.6,1.7C68-17.6,69-16.9,69.7-17.8z M68.6,1c0-1.1-0.4-2-1.1-2.8c-0.8-0.8-1.7-1.3-2.8-1.3h0l-5.8,0.3V8.8h2.3
			v-9.4l3.3-0.2h0.1c0.5,0,0.9,0.2,1.2,0.5c0.4,0.4,0.5,0.8,0.5,1.3v7.7l2.3-0.9V1z M60.1,32.2c-1,0.1-2.5-0.1-3,0.4
			c0.3,1.5,1.3,2.3,2.6,2.8C60,34.5,60,33.2,60.1,32.2z M56.4,8.8l0.8-2.3l-5.1,0.3H52c-0.5,0-0.9-0.2-1.2-0.5
			c-0.4-0.4-0.5-0.8-0.5-1.3V4.4h7.4V1c0-1.1-0.4-2.1-1.2-2.9c-0.8-0.8-1.8-1.2-2.9-1.2h-1.4c-1.1,0-2.1,0.4-2.9,1.2
			c-0.8,0.8-1.2,1.8-1.2,2.9v3.9c0,1.1,0.4,2,1.1,2.8C49.9,8.6,50.8,9,51.9,9h0L56.4,8.8z M51.3,31.8c-0.7,0-1.8,0.1-2,0.5
			c0.1,0.6,0.5,1.1,0.8,1.5C51,33.5,51.8,31.9,51.3,31.8z M52.6-14.9c-0.6-0.2-0.9-0.6-1.4-0.9c-0.1,0.4-0.2,2,0.1,2.7
			c0.1,0.2,0.5,0.8,1,1C52.8-12.6,52.5-13.9,52.6-14.9z M50.1-19.7c0.6,0.4,2.3,0.7,2.2,1.1c-0.1,0.3-1,0.1-1.3,0.5
			c-0.2,0.3-0.1,1.2-0.1,1.6c1.8-0.1,2.2-1.1,3.2-1.4c0.3,0,1.9,1.3,3.2,2c0.3,0.4-0.9,0.9-0.9,1.2c0,0.3,0.1,1.5,0.3,1.6
			c0.4,0.1,0.9-0.9,1.5-1.3c0.3-0.2,0.9,0.2,1.6,0.3c0.2,0.1-0.6,0.9-0.2,1c0.9-0.3,1.8,0.9,2.3,0c-0.6-0.9-0.3-1.8,0.2-2.6
			c-1.2-0.2-0.9,1.3-1.9,1.2c-0.8-1.2-2.5-1.4-2.3-2c0.7-0.4,1.4-0.8,1.8-1.4c0.1-0.3,1.5,1.3,2.6,1.6c0.8,0.3,1.5-0.5,2.6-1.1
			C63.2-22.2,53.1-25.1,50.1-19.7z M64.2-14.3c0.1,0.6,1.5,1.5,2,1.4c0-0.3-0.3-2.2-0.8-3.4C64.9-16,64.2-15.3,64.2-14.3z M67.4-14
			c0.4-0.7,0.7-1.4,0.9-2.3c-0.4-0.3-0.8-0.4-1.2-0.3C66.7-16.1,66.4-14.1,67.4-14z M77.9-7.7c0.8,0.3,1.2,0.7,1.6,1.4
			c0.4-0.4,0.9-0.9,1-1.3C80.4-8.2,78.1-8.8,77.9-7.7z M47.1-17.3c-0.5-0.2-0.7-0.7-1-0.6c-0.8,0.4-1.2,1.7-1.7,2.3
			c-0.3,0.4-0.7-0.9-1.6,0.3c0.5,0.4,1,0.5,1.4,0.6C44.6-14.8,46.8-16.4,47.1-17.3z M46.7-2.8l-5.5-0.3l-0.2,0
			c-1.1,0-2.1,0.4-2.9,1.2C37.4-1,37-0.1,37,1v3.9C37,6,37.4,7,38.2,7.8C39,8.6,40,9,41.1,9h1.4c0.7,0,1.3-0.1,1.9-0.4v0.9
			c0,0.5-0.2,0.9-0.5,1.3c-0.4,0.4-0.8,0.5-1.3,0.5h-1.2c-0.6,0-1-0.2-1.4-0.5c-0.3-0.3-0.5-0.7-0.5-1.2V9.1L37.2,10
			c0.1,1,0.5,1.8,1.2,2.5c0.8,0.7,1.8,1.1,2.9,1.1h1.2c1.1,0,2.1-0.4,2.9-1.2c0.8-0.8,1.2-1.8,1.2-2.9V-2.8z M43.8,33.3
			c-0.8,0.6-2.2,2.5-1.9,2.6c0.5-0.1,1.5-0.3,1.9-0.6C44.1,34.8,43.8,33.9,43.8,33.3z M40.9,36c-0.8-0.9-2.8-1.3-3.9-1.6
			c0.2-0.7,1.4-1.2,1.3-1.8c-0.8-0.2-1.9-0.5-2.3-0.5c-0.3,0-1.1,1-1.2,1.4C35.6,35.2,38.4,36.8,40.9,36z M34.3,11.5l1.4-0.6V-2.9
			h-2.3v9.4l-3.3,0.1H30c-0.5,0-0.9-0.2-1.2-0.5c-0.4-0.4-0.5-0.8-0.5-1.3V-2L26-2.9v7.7c0,1.1,0.4,2,1.1,2.8C27.9,8.6,28.8,9,30,9
			h0l3.5-0.1v2.7L32,12.1v2.7l2.3-0.9V11.5z M32.2,33.5h-1.7c0.5,1.2,0.9,3.3,0.8,4.3C32.3,37,32.3,35.3,32.2,33.5z M28.6,11.4
			l-5.5-0.3h-0.2c-1.1,0-2.1,0.4-2.9,1.2c-0.8,0.8-1.1,1.8-1.1,2.8v3.9c0,1.1,0.4,2.1,1.2,2.9c0.8,0.8,1.8,1.2,2.9,1.2h1.4
			c0.7,0,1.3-0.1,1.9-0.4v0.9c0,0.5-0.2,0.9-0.5,1.3c-0.4,0.4-0.8,0.5-1.3,0.5h-1.2c-0.6,0-1-0.2-1.4-0.5c-0.3-0.3-0.5-0.7-0.5-1.2
			v-0.6l-2.3,0.9c0.1,1,0.5,1.8,1.2,2.5c0.8,0.7,1.8,1.1,2.9,1.1h1.2c1.1,0,2.1-0.4,2.9-1.2c0.8-0.8,1.2-1.8,1.2-2.9V11.4z
			 M26.8,35.6c-1.4-0.1-4.5,0.3-4.5,0.3c0,0.4,0.1,0.3,0.1,0.3c1.6-0.1,4.3,0,4.4,0C26.9,36.3,26.8,35.6,26.8,35.6z M22.1,35.2
			c1.5-0.1,2.5-0.1,4.6-0.1C26.6,33.3,21.8,33.2,22.1,35.2z M21.2,33.8c-0.3,0-0.8,0-1.1,0c-0.1,1.7-0.3,4.3-0.8,5.6
			c0.8-0.3,1.6-0.4,2.2-0.4C21.6,36.8,21.3,35.5,21.2,33.8z M17.7,15.2c0-1.1-0.4-2-1.1-2.8c-0.8-0.8-1.7-1.3-2.8-1.3h0L8,11.4V23
			h2.3v-9.4l3.3-0.2h0.2c0.5,0,0.9,0.2,1.2,0.5c0.4,0.4,0.5,0.8,0.5,1.3V23l2.3-0.6V15.2z M17.3,32c-0.3-0.5-1.4-0.9-1.8-1.3
			c0,0.3-0.3,1-0.5,1.1c-0.5,0.2-1.7-0.1-2.4-0.3c0.1,1.2,0.1,2.3,0.5,3.1c1-0.4,1.6-1.1,2.1-2c0.4,0.4,1.2,0.6,1.9,0.6
			C17.3,32.9,17.4,32.3,17.3,32z M9.8-0.8c0.5,0,0.9,0.2,1.2,0.5c0.4,0.4,0.5,0.8,0.5,1.3v6.9l2.3,0.9V1c0-1.1-0.4-2-1.1-2.8
			c-0.8-0.8-1.7-1.3-2.8-1.3c-0.2,0-0.7,0-3,0.1v-3.7L4.5-5.7V8.8h2.3v-9.4C8.4-0.8,9.4-0.8,9.8-0.8z M6.8,11.4l-2.3,0.9V23h2.3
			V11.4z M7.2-9.7C7.4-9.3,8-8.9,8.5-8.8c0.6,0,2.4-1,2.7-1.5C11.2-10.6,7.2-10,7.2-9.7z M5.8-11.6c2.4-0.5,5.9-0.2,8-1
			c0.5-0.2,0.7-1.3,0.8-1.9c-0.8,0.3-2.2,1-2.8,0.2c-0.2-1.2,1.3-2.2,1.9-3.1c-3-0.3-4.8,0.3-7.1,1.2C6.2-14.8,5.8-12.7,5.8-11.6z
			 M13.4-15.2c0.3,0.2,1-0.1,1-0.1s0.3-0.5,0-1.1C14.4-16.4,13.1-15.4,13.4-15.2z M15,4.9c0,1.1,0.4,2,1.1,2.8
			C16.9,8.6,17.8,9,18.9,9h0l5.8-0.3V-2.9h-2.3v9.4l-3.3,0.2H19c-0.5,0-0.9-0.2-1.2-0.5c-0.4-0.4-0.5-0.8-0.5-1.3v-7.7L15-1.7V4.9z
			 M16.9-17.3c0.1,0.2,0.6,0.8,0.6,1.2c1-0.3,2.9-1,3.5-1.4C19.3-17.7,17.9-18,16.9-17.3z M17.6-13c0,0.9,2.3-1.1,2.3-1.4
			C19.7-14.5,17.6-13.3,17.6-13z M22.3-16.9c-0.2,0-0.4-0.6-0.7-0.5c-1.1,0.5-2.8,1.5-3.9,2c-0.2,0.1-0.2,1.3-0.1,1.6
			C19.1-14.8,20.9-15.7,22.3-16.9z M23.3-15.9c-1,0.9-1.1,2.4-0.5,3.9C23.5-12.9,24.7-15.3,23.3-15.9z M18.1-18.5
			c1.5-0.4,4.1-0.4,5.4-0.4c0.3,0,1.9-0.8,2.4-1c0-0.9,0-1.7,0-2.6c-0.4,0.1-1.2,0.2-1.6,0.6C23-20.7,20.5-19.7,18.1-18.5z M28.6-16
			c1.9-0.8,2.8-1,3.8-1.1c-0.3-0.5-0.4-1.3-0.8-1.6c-0.2-0.3-0.8,0.5-1.5,0.6c-0.6,0.1-1.7-0.4-1.3-1c1.4-1.1,4.2-0.2,4.9-0.3
			c1.1-0.2,1.9-1.7,1.9-3.7c-1.8,0.7-4.5,2.5-7.3,3C28.4-19.1,27.4-17,28.6-16z M28.4-21.7c1.2-0.7,1.9-1.2,3.1-2
			c-1.2,0.1-2.3,0.4-3,0.9C28.4-22.7,28.4-21.9,28.4-21.7z M32.4-23.7c-1,0.6-2.3,1.7-2.2,1.9c0.7-0.1,2.4-0.8,4.4-1.9
			C33.9-23.8,32.6-23.9,32.4-23.7z M33.8-24.6c0.7,0,1.9,0.2,2.2,0.1c1.6-0.5,3.4-1.8,3.4-2.6C39.3-27.7,35.7-26.1,33.8-24.6z
			 M32.9-16.4c-1.1-0.2-2.5,0.6-3.8,1c0,0.5,0.2,0.9,0.2,1.3c1.8,0.3,4,0.3,5.5-0.4C34-15.3,33.2-16.4,32.9-16.4z M44.5-20.1
			c0.3-0.2,0.2-1.5,0.6-1.4c0.8,0.2,1.9,0.3,1.9,0c-1.7-0.4-2.2-1.1-2.9-1.7C43.5-22.6,44.1-20.6,44.5-20.1z M4,25.7
			c-1-0.7-1.9-1.6-2.4-2c-0.3,0.1-1.2,0.7-1.8,0.8C1.1,24.8,2.2,25.5,4,25.7z M1.1,23c-0.6-0.7-0.8-1.3-2.2-2.2
			c0.3,1.4,0.1,1.9-0.5,2.3c-0.1,0.1-0.5-0.1-1-0.2c-0.6-0.1-0.6-1.2-0.5-1.7c0.1-0.4,0.6-0.5,0.6-0.6c-0.1-0.1-0.5-0.2-0.5-0.2
			c-0.5,0.1-0.7,1.3-0.6,1.8c0.3,1,0.8,1.7,2.6,1.8C-0.5,24,0.7,23.3,1.1,23z M1.8,19.8c-0.8-0.7-1.6-1.3-1.7-2.6
			c-1.9-0.3-3.6-0.4-4.5,0.9C-2.7,18.8-0.4,20.5,1.8,19.8z M-4,19.8c-0.6-0.2-1-0.6-1.2-0.7C-6.6,20.6-6.5,23-5,23.6
			C-5.2,21.8-4.6,20.8-4,19.8z M-4.9,17.8c0.8-1.2,2.4-1.5,1.6-2.8c-1.6-0.6-2.3,0-3.6,0.7C-6.6,16.7-5.9,17.3-4.9,17.8z M-7.4,14.7
			c2.4-1.1,2.6-2.8,5.1-2.2C-1,11.5-1,9.2-1.3,6.2C-3.1,7.3-5.1,9-7.8,8.9C-8.1,11.1-8,13.4-7.4,14.7z M-8.8,8.2
			c0.5-0.9,0.8-2,1.8-2.9c0.2-0.2,0.4-0.2,0.5-0.1c-0.3,0.9-1.5,2.4-1,2.9C-5.9,7.8-3.8,6.3-3,5.2c0.3-0.4,0-0.9,0.1-1.4
			c0.1-0.4,0.7-0.9,0.7-1.5C-3.1,2-4.8,1.5-5.1,1.6C-6.4,2.1-12.3,8.4-8.8,8.2z M-3.6,0.4C-2.9,0.5-1.8,1-1,1.1
			c0.3-0.2,0.5-0.8,1-1.5C-0.9-0.7-1.8-1-2-1C-2.7-1.3-3.1-0.4-3.6,0.4z M-0.2,12.8c0,1.3-0.9,1.4-0.9,2.4c0.7,0,1.6,0,2-0.3
			C0.9,14,0.7,13.3-0.2,12.8z M88.8,8.3c-0.3,0.2-1.3,0.5-1.9,0.2c-0.8-0.4-0.9-0.9-0.5-1.6c0.6-0.8,2.3,0.7,1.9-0.4
			c-0.1-0.3-2-0.1-2.5,0.2c-1.6,1.2-2.6,3.7-3.5,5.5c0.6-0.1,3.1-0.4,3.1,0c-0.5,1.1-1.5,2.3-2.7,2.7c-0.3,0,0.3-1.5-0.8-1.8
			c-2,1.9-4.3,3.6-6.2,5.7c4.6-0.8,6-3,6.4-2.6c0.7,0.3-0.9,1-0.9,2c5.5,5-4.3,11.1-8.6,12.8c0.7,0.6,0.2,2.7-0.7,2.7
			c-0.2-0.4-0.3-1-0.5-1.2c-1.2-1.5-5.6-2-5.8-0.9c-0.5,1.2-0.8,4.2,0,4.5c1.2,0.1,2.7-0.9,3.4-1.6c0.1-0.1,0.6-0.7,1-0.7
			c-1.2,2.1-2.2,4.2-6,3.7c-1.7-0.5-1.3-3.9-1.5-6h-1.7c-0.2,1.4,0.3,3.3-0.4,4.3c0.8,0.2,1.4-1,1.8-0.3c-1.1,1.2-3.2,3.1-3.5,2.9
			c-2.2-1.1-4.2-2.5-4.8-5.1c-0.5,0.6-3.4,2.3-2.8,2.4c0.4,0.2,2.5-0.2,3.1,0c-0.3,1.3-2.1,3.1-2.3,2.7c-0.2-2-1.8-3.2-3.8-3.4
			c-0.1,2-0.7,2.7,0.2,4.3c-2.3,0.3-4.1,1.1-5.5,2.4c-0.3,0.3-0.7,1.1-0.9,1c-2.2-1.3-4.5,1.2-5.2,1.1c1-2.6,4-5.5,7.6-3.7
			c0.5-1.7-0.9-3-0.3-4c-3.1,1.2-7.1,1.6-9.8,0.3c-0.7,1.2-1.6,2-3.1,2.5c0,0.7,0.3,1.4,0.1,1.8c-1.8,0.6-2.2,0.4-3.1,0.9
			c-1.5,0.8-2.4,2.4-2.7,2c0.5-2.9,3.4-2.8,3-6.6c-2.1,0.8-4.7-0.3-6.1,0.3c0,0.6,0,1.1,0,1.7c1,0.1,1.9,0.3,2.6,0.1
			c0.7-0.2,1.4-0.9,1.8-0.6c-1.1,3.9-7.8,2.4-11.1,3.1c-0.1-0.1-0.3-0.2-0.2-0.3c1.2-1.1,2.8-2.5,2-4.8c-1.1-0.2-1,0.7-1.7,0.9
			c-0.6-0.9-1.4-1.7-2.6-2c-0.5,3-5.1,4.2-8.6,3.8c-0.4,0-0.3-0.2-0.4-0.4c2.4-0.2,4.2-0.8,5.5-2c0.1-1.4-0.8-2.6-1.3-3.2
			c-2.4,2.1-8.7,3.4-8.4-2.2c0.8-0.7,4.3-1.7,4.9,0c-0.1,0.8-1.1,0.6-1.5,1.1c1.1,0.8,3.1,0.5,3.6-0.6c-0.8-1.8-4.6-3.4-5.5-3.5
			c-3.2-0.2-6.7,1-8.1,2.6c-0.1,0.1-0.3,0-0.4,0.1c1.5-2.2,3.6-2.9,6.1-3.7c-2.4-1.1-3.4-2.7-3.7-2.8c-2.1-0.4-3.3-3.1-1.2-5.6
			c-3.4-1.5-4.5-6.2-3.2-10.1c-0.7-0.2-1.5-0.2-1.4-1.1c0.5-3.3,3.2-5,4.3-6.3c-2.1-0.4-4.8-1.1-6.1,0.1c-0.2,0.1,0.2,0.8,0.1,1
			c-0.1,0.2-0.6,0.2-0.8,0.1C-13.1-1-6.4-0.2-4.5,0.1c0.2,0,0.9-0.9,1.7-1.4c-1-1.2-1.8-1.8-1.7-3.4C-4.5-5-3.8-6-3.1-6.9l0.4,0.1
			C-2.9-6.5-3-6.1-3-5.5c0.3,1.1,2,1.9,3.7,1.4C0.4-5.4-0.2-6.3,0.7-7.5c-1.5,0.4-2,0.7-2.9,0.4l-0.7-0.1c0.9-1,1.5-2,2.4-2.7
			c0.2-0.1,1.2,0.8,1.4,0.7c0.1,0,0.8-0.6,0.4-0.7c-0.7-0.2-1.2-1-1.4-1.9c-0.2-0.6,1-1.6,1.3-1.8c1.3-0.1,0.4,1.7,1.7,1.5
			c0.4-1.7,0.8-3.7,1.3-5.3c-0.6-1-2.2,0.8-2.9,0.2c-0.5-0.3,1.7-2.2,2.8-2c0.3,0-0.6,1.4,0.7,0.8c0.1-0.3,0.4-0.8,0.4-0.8
			c-1.4-0.4,3.8-2,4-1.8c0.4,0.7-1,1.2-1.1,2c0.7-0.5,4.1-2.8,4.2-1.6c0,1-3,1.2-4.6,2.4C7.5-18,7-17.3,6.8-16.9
			c2.7-0.9,5.8-2.4,8.5-1.7c2.3-1.8,7.3-4.1,6.8-4.7c-2,0.4-3.5,1.9-3.8,1.9c1.7-2,7.3-3.8,6.6-1.4c2.2-0.5,7-1.4,7.5-1.5
			c0.6-0.2,3.8-2.5,6.4-3.4c0.8-0.2,1.6-0.2,1.8,0.2c0.4,1.2-2.1,2.9-3.8,3.7c1.5,0.2,2.7,1,2.6,2.3c-0.4,1.7-2.5,2.9-5,3
			c0,0.5,0.3,1,0.6,1.1c0.4,0.1,1.8-0.4,2.4-0.4c0.2,0,0.1,0.5,0,0.5c-0.5,0.3-1.6,0.1-1.9,0.3c-0.4,0.3,0.6,1,0.9,1.6
			c1.9-1.4,2.6-2.2,3.9-3.4c0.5-0.4,0.4-2.2,0.2-3.4c0.3,0-0.9-0.6-0.7-0.6c2.9,0,5.5-0.8,7.1-2.1c0.7,1.6,2.6,1.5,4,1.7
			c-1.4,1.3-4.9,2.3-5.7,4.3c-0.1,0.2,0.6,0.6,0.9,0.6c1.1-0.6,1.4-1.6,2-1.7c0.4-0.1,0.5,0.2,1.3,0.5c3.3-6.5,12.9-2.4,16.7,0.8
			c0.3-0.6,0.5-1.2,0.5-1.6c-0.1-0.7-1.2-1.2-1.7-1.4c-0.8-0.4-0.5,0.6-1.3-0.4C63.3-23.7,66-22,67-21.5c0.1-0.6,0.4-1.3,1-1.3
			c0.6,0,1.8,0.7,1.9,1.2c0,0.2-0.6-0.3-1-0.2c-0.3,0.1-0.6,0.9-0.6,1.3c0.7,0.7,1.1,1.7,2,2.2c0.2,0.1,0.3-0.2,0.5-0.1
			c0.9,0.4,2.6,1.7,3.6,2.2c0.2,0.1,0.5-0.6,0.8-0.7c0.2-0.6-1.9-1-0.9-1.6c1.4,0,2.9,1.3,2.6,1.8c-1.1,0.9-3.1,1.6-4.9,1.1
			c1.1,0.9,1.6,2,2.1,1.9c1.2-0.4,2.9-0.9,3.8,0c0.3,0.4-0.1,0.8-0.9,1.1c-0.2,0.1-0.7-0.3-1-0.4c-0.6-0.3-1.3-0.4-1.3,0
			c0.2,1.2-0.6,1-0.6,2.1c0.6,0.6,1.1-0.3,1.6-0.4c0.4-0.1,1.4,0.1,1.5,0.8c0.2,0.6-1.9,0.2-0.8,1.4c1.4-0.4,2.7-0.5,4.2,0
			c0.9-0.8-1.7-1.7-1.2-2.3c0.1-0.3,0.5-0.8,0.9-0.6c1.7,1.1,1.5,4.2,0.1,5.9c-0.3,0.4-0.2,1.3,0,1.9c0.3,0.4,1.7-0.4,2.2,0.1
			c0.6,0.5-2.6,4.2-2.4,4.4c0.1,0.1,0.3,0,0.4,0c0.3,0,3.3-4.3,3.5-4.4c0.4-0.1,1-0.1,1,0.1c-1.2,1.5-2.3,3-3.3,4.7
			c0.4,0.2,1.5-0.3,1.4,0.3c0,0.8-0.5,1.5-1,1.8C82,3,81.7,2.7,81.5,3.1c0.9,0.6,0.8,2.3,0,3.4c-0.2,0.3,0.5,0.4,1,0.4
			C84.7,2.6,92.5,6.4,88.8,8.3z M22.9,13.4l3.4,0.2v5.5c0,0.5-0.2,0.9-0.5,1.3C25.4,20.8,25,21,24.4,21h-1.4c-0.5,0-1-0.2-1.3-0.5
			c-0.4-0.4-0.5-0.8-0.5-1.3v-3.9c0-0.5,0.2-0.9,0.5-1.3C22,13.6,22.4,13.4,22.9,13.4z"/>
	</g>
</g>
</svg>
