<?xml version="1.0" encoding="utf-8"?>
<!-- Generator: Adobe Illustrator 23.0.3, SVG Export Plug-In . SVG Version: 6.00 Build 0)  -->
<svg version="1.1" id="Layer_1" xmlns="http://www.w3.org/2000/svg" xmlns:xlink="http://www.w3.org/1999/xlink" x="0px" y="0px"
	 viewBox="0 0 53.5 51.6" style="enable-background:new 0 0 53.5 51.6;" xml:space="preserve">
<style type="text/css">
	.st0{fill:#FF7320;}
	.st1{fill:#FFFFFF;}
	.st2{fill:#FBBD8E;}
</style>
<g>
	<path class="st0" d="M52.9,9.4C49.5-5.8,27.4,0.3,13.5,7.8C-2.7,16.6-1,25.2,1.8,31.3C4.4,37,13.1,51.8,29.5,51.6
		C45.4,51.4,56.2,26,52.9,9.4z"/>
	<path class="st1" d="M33.9,26.7c0,3.1-2.5,5.7-5.7,5.7c-3.1,0-5.7-2.5-5.7-5.7c0-3.1,2.5-5.7,5.7-5.7S33.9,23.5,33.9,26.7z"/>
	<path class="st2" d="M16.6,18.4c0,0.7,0.3,1.4,0.8,2c0.6,0.6,1.2,0.9,1.9,0.9s1.3-0.3,1.9-0.8c0,0,6.4-6.3,7-6.9
		c0.6,0.6,7,6.9,7,6.9c0.6,0.6,1.2,0.8,1.9,0.8s1.4-0.3,1.9-0.9s0.8-1.2,0.8-2c0-0.7-0.3-1.3-0.8-1.9l-8.8-8.8
		c-0.6-0.6-1.3-0.9-2.1-0.9S26.6,7.1,26,7.7l-8.8,8.8C16.8,17,16.6,17.7,16.6,18.4L16.6,18.4z"/>
	<path class="st1" d="M39.9,34.9c0-0.7-0.3-1.4-0.8-2c-0.6-0.6-1.2-0.9-1.9-0.9s-1.3,0.3-1.9,0.8c0,0-6.4,6.3-7,6.9
		c-0.6-0.6-7-6.9-7-6.9c-0.6-0.6-1.2-0.8-1.9-0.8s-1.4,0.3-1.9,0.9s-0.8,1.2-0.8,2c0,0.7,0.3,1.3,0.8,1.9l8.8,8.8
		c0.6,0.6,1.3,0.9,2.1,0.9s1.5-0.3,2.1-0.9l8.8-8.8C39.6,36.2,39.9,35.6,39.9,34.9L39.9,34.9z"/>
</g>
</svg>
